
<svg 
 width="512.000000pt" height="512.000000pt" viewBox="0 0 512.000000 512.000000"
 >

<g transform="translate(0.000000,512.000000) scale(0.100000,-0.100000)"
fill="#000000" stroke="none">
<path d="M4013 5110 c-128 -23 -223 -83 -373 -234 l-95 -96 618 -617 617 -618
96 95 c150 149 208 242 235 378 22 116 -4 260 -67 371 -35 61 -563 593 -637
642 -32 21 -86 47 -120 58 -73 24 -201 34 -274 21z"/>
<path d="M1852 3087 l-1472 -1472 618 -618 617 -617 1473 1473 c809 809 1472
1477 1472 1482 0 13 -1212 1225 -1225 1225 -6 0 -673 -663 -1483 -1473z"/>
<path d="M217 1334 c-3 -11 -54 -282 -113 -602 -117 -640 -116 -627 -58 -686
59 -58 46 -59 686 58 320 59 591 110 601 114 14 6 -99 123 -547 571 -444 444
-565 560 -569 545z"/>
</g>
</svg>
