<?xml version="1.0" standalone="no"?>
<!DOCTYPE svg PUBLIC "-//W3C//DTD SVG 20010904//EN"
 "http://www.w3.org/TR/2001/REC-SVG-20010904/DTD/svg10.dtd">
<svg version="1.0" xmlns="http://www.w3.org/2000/svg"
 width="512.000000pt" height="512.000000pt" viewBox="0 0 512.000000 512.000000"
 preserveAspectRatio="xMidYMid meet">

<g transform="translate(0.000000,512.000000) scale(0.100000,-0.100000)"
fill="#000000" stroke="none">
<path d="M340 4344 c-30 -8 -59 -19 -65 -25 -11 -11 2161 -2190 2207 -2215 35
-18 121 -18 156 0 46 25 2218 2204 2207 2215 -6 6 -37 17 -70 25 -53 14 -298
16 -2220 15 -1871 0 -2167 -2 -2215 -15z"/>
<path d="M23 4048 c-17 -50 -18 -123 -18 -1488 0 -1365 1 -1438 18 -1487 10
-29 22 -53 25 -53 4 0 354 347 777 770 l770 770 -770 770 c-423 424 -773 770
-777 770 -3 0 -15 -24 -25 -52z"/>
<path d="M4295 3330 l-770 -770 770 -770 c423 -423 773 -770 777 -770 3 0 15
24 25 53 17 49 18 122 18 1487 0 1365 -1 1438 -18 1488 -10 28 -22 52 -25 52
-4 0 -354 -346 -777 -770z"/>
<path d="M1030 1575 c-495 -495 -761 -768 -755 -774 6 -6 37 -17 70 -25 53
-14 299 -16 2215 -16 1916 0 2162 2 2215 16 33 8 64 19 70 25 6 6 -260 279
-757 776 l-767 767 -238 -235 c-218 -216 -245 -239 -317 -275 l-80 -39 -126 0
-126 0 -80 39 c-72 36 -100 60 -315 273 -129 128 -237 233 -240 233 -2 0 -348
-344 -769 -765z"/>
</g>
</svg>
