<?xml version="1.0" standalone="no"?>
<!DOCTYPE svg PUBLIC "-//W3C//DTD SVG 20010904//EN"
 "http://www.w3.org/TR/2001/REC-SVG-20010904/DTD/svg10.dtd">
<svg version="1.0" xmlns="http://www.w3.org/2000/svg"
 width="512.000000pt" height="512.000000pt" viewBox="0 0 512.000000 512.000000"
 preserveAspectRatio="xMidYMid meet">

<g transform="translate(0.000000,512.000000) scale(0.100000,-0.100000)"
fill="#000000" stroke="none">
<path d="M521 4944 c-169 -45 -301 -180 -346 -351 -23 -86 -23 -3980 0 -4066
45 -173 178 -307 350 -352 52 -13 293 -15 2035 -15 2155 0 2025 -3 2142 56 71
36 159 123 197 193 65 123 61 -25 61 2151 0 1742 -2 1983 -15 2035 -45 172
-179 305 -352 350 -85 22 -3989 21 -4072 -1z m4045 -330 c15 -11 37 -33 48
-48 21 -27 21 -32 24 -1304 l2 -1277 -282 282 c-306 304 -306 305 -396 288
-32 -6 -76 -45 -320 -288 l-282 -282 -763 762 c-675 675 -766 762 -800 768
-93 17 -61 45 -714 -608 l-603 -602 0 1102 c0 756 3 1111 11 1130 14 37 47 73
84 89 25 11 373 13 1997 11 l1967 -2 27 -21z m-1476 -2809 l1325 -1325 -1917
2 -1917 3 -27 21 c-15 11 -37 33 -48 48 -21 27 -21 39 -24 664 l-2 637 637
637 c351 351 640 638 643 638 3 0 601 -596 1330 -1325z m1232 48 l318 -318 0
-415 0 -415 -527 527 -528 528 205 205 c113 113 207 205 210 205 3 0 148 -143
322 -317z"/>
<path d="M3382 4145 c-286 -62 -502 -331 -502 -625 0 -349 291 -640 640 -640
237 0 468 143 569 352 94 194 94 382 0 576 -124 256 -423 398 -707 337z m273
-336 c63 -30 123 -90 155 -154 35 -71 35 -197 0 -270 -31 -64 -91 -124 -155
-155 -73 -35 -199 -35 -270 0 -64 31 -124 91 -155 155 -35 71 -35 197 0 270
42 86 123 152 215 176 54 14 156 3 210 -22z"/>
</g>
</svg>
