
<svg 
 width="512.000000pt" height="512.000000pt" viewBox="0 0 512.000000 512.000000"
 >

<g transform="translate(0.000000,512.000000) scale(0.100000,-0.100000)"
fill="#000000" stroke="none">
<path d="M2355 4684 c-16 -2 -66 -9 -110 -15 -44 -6 -138 -26 -210 -44 -843
-212 -1469 -914 -1589 -1783 -18 -130 -21 -406 -6 -532 62 -496 289 -948 651
-1295 322 -309 745 -511 1192 -570 135 -17 393 -20 517 -5 705 86 1322 507
1645 1124 37 72 45 96 45 142 0 197 -238 288 -368 140 -18 -20 -45 -63 -61
-95 -44 -87 -141 -226 -220 -318 -341 -393 -888 -617 -1403 -574 -535 45 -995
312 -1289 750 -206 305 -299 634 -286 1009 8 265 57 457 177 697 91 181 178
303 320 445 307 307 698 479 1130 497 545 22 1074 -219 1405 -642 59 -76 135
-188 135 -200 0 -3 -151 -5 -335 -5 -311 0 -339 -1 -373 -19 -162 -83 -162
-299 1 -382 36 -19 61 -19 635 -17 l598 3 37 25 c21 14 50 43 65 64 l27 39 3
599 c2 574 2 599 -17 635 -83 163 -299 163 -382 1 -17 -34 -19 -61 -19 -273 0
-129 -3 -235 -7 -234 -5 0 -33 32 -63 70 -184 235 -501 471 -806 600 -268 114
-492 160 -799 164 -115 2 -223 1 -240 -1z"/>
</g>
</svg>
