
<svg 
 width="512.000000pt" height="512.000000pt" viewBox="0 0 512.000000 512.000000"
>

<g transform="translate(0.000000,512.000000) scale(0.100000,-0.100000)"
fill="#000000" stroke="none">
<path d="M3920 4683 c-8 -3 -775 -289 -1705 -636 -1054 -393 -1712 -633 -1747
-639 -173 -24 -324 -129 -403 -279 -57 -109 -65 -161 -65 -447 0 -334 -5 -326
190 -335 166 -8 266 -54 356 -164 64 -79 88 -149 88 -263 0 -114 -24 -184 -88
-263 -90 -110 -190 -156 -356 -164 -195 -9 -190 -1 -190 -335 0 -286 8 -338
65 -447 59 -113 168 -207 290 -254 60 -22 64 -22 765 -27 388 -3 1353 -3 2145
0 l1440 5 60 22 c124 47 230 140 290 254 57 109 65 161 65 452 l0 259 -34 34
c-33 33 -36 34 -113 34 -167 0 -272 38 -366 131 -168 168 -168 431 0 597 93
92 201 132 359 132 151 0 154 7 154 332 0 279 -8 335 -59 436 -71 141 -197
241 -356 281 l-40 11 -188 552 c-118 349 -198 567 -215 592 -36 52 -105 102
-166 121 -48 14 -145 19 -176 8z m130 -218 c16 -8 34 -24 40 -35 15 -27 340
-991 340 -1007 0 -11 -291 -13 -1647 -13 -905 0 -1643 3 -1640 6 12 13 2833
1063 2855 1063 13 1 36 -6 52 -14z m-2340 -1341 c0 -70 2 -78 29 -105 21 -21
39 -29 65 -29 81 0 116 43 116 144 l0 66 1373 -2 1372 -3 53 -24 c65 -29 143
-113 168 -178 14 -38 18 -89 22 -240 l4 -193 -34 0 c-66 -1 -175 -30 -258 -71
-162 -79 -293 -244 -334 -419 -20 -83 -20 -217 0 -300 41 -175 172 -340 334
-419 83 -41 192 -70 258 -71 l34 0 -4 -192 c-4 -152 -8 -203 -22 -241 -25 -65
-103 -149 -168 -178 l-53 -24 -1372 -3 -1373 -2 0 66 c0 101 -35 144 -116 144
-26 0 -44 -8 -65 -29 -27 -27 -29 -35 -29 -106 l0 -76 -627 3 -628 3 -53 24
c-65 29 -143 113 -168 178 -14 38 -18 89 -22 241 l-4 192 34 0 c66 1 175 30
258 71 162 79 293 244 334 419 20 83 20 217 0 300 -41 175 -172 340 -334 419
-83 40 -192 70 -257 71 l-33 0 0 165 c0 165 10 246 37 299 21 41 92 115 127
133 78 41 91 42 724 42 l612 1 0 -76z"/>
<path d="M1774 2650 c-12 -4 -31 -21 -43 -36 -20 -25 -21 -37 -21 -243 0 -240
2 -251 65 -277 46 -19 100 -2 125 39 18 29 20 52 20 234 0 111 -4 213 -10 227
-11 29 -65 66 -95 65 -11 0 -30 -4 -41 -9z"/>
<path d="M1783 1748 c-17 -4 -41 -20 -52 -34 -20 -25 -21 -40 -21 -245 l0
-219 28 -30 c50 -57 146 -42 172 26 6 14 10 116 10 227 0 184 -2 205 -20 235
-11 17 -21 32 -22 32 -2 0 -17 4 -33 8 -17 5 -44 5 -62 0z"/>
</g>
</svg>
